<?xml version="1.0" encoding="UTF-8"?>
<svg version="1.1" xmlns="http://www.w3.org/2000/svg" width="500" height="500">
<path d="M0 0 C165 0 330 0 500 0 C500 165 500 330 500 500 C335 500 170 500 0 500 C0 335 0 170 0 0 Z " fill="#171717" transform="translate(0,0)"/>
<path d="M0 0 C0.7159433 -0.01044342 1.4318866 -0.02088684 2.16952515 -0.03164673 C12.99160788 -0.1546865 22.57638678 1.40939542 32.9375 4.5 C34.17318726 4.86109863 34.17318726 4.86109863 35.43383789 5.22949219 C63.62194564 13.98096027 85.17543492 35.24352448 98.7265625 60.890625 C105.36882326 73.92232691 109.19780078 87.89524108 109.9375 102.5 C109.97149902 103.16789551 110.00549805 103.83579102 110.04052734 104.52392578 C111.39882204 135.57164671 100.3960933 162.94383928 79.703125 185.98828125 C60.21787074 206.46053368 33.23503422 218.82290319 5.0390625 219.71484375 C-27.47482306 220.38105145 -54.30310296 209.86646757 -78.0625 187.5 C-78.73925781 186.89929688 -79.41601562 186.29859375 -80.11328125 185.6796875 C-91.13082591 175.47907501 -97.54031629 162.2102492 -103.0625 148.5 C-103.58714844 147.34886719 -104.11179688 146.19773437 -104.65234375 145.01171875 C-108.5483886 135.3093799 -109.60500997 123.89360153 -110.0625 113.5 C-110.10375 112.57316406 -110.145 111.64632812 -110.1875 110.69140625 C-110.47190115 97.59117826 -109.00723582 84.68469168 -104.0625 72.5 C-103.81870605 71.8827002 -103.57491211 71.26540039 -103.32373047 70.62939453 C-92.11777565 42.48053071 -71.56793845 20.79326368 -44.01953125 8.09765625 C-40.73504656 6.75530164 -37.43521674 5.60145029 -34.0625 4.5 C-32.9384375 4.10554687 -31.814375 3.71109375 -30.65625 3.3046875 C-20.54707942 0.3178871 -10.46642884 0.07344613 0 0 Z " fill="#17191A" transform="translate(250.0625,234.5)"/>
<path d="M0 0 C0.76103027 0.22574707 1.52206055 0.45149414 2.30615234 0.68408203 C37.67415996 11.45490077 66.77002452 34.14452789 84.74609375 66.609375 C101.44296493 98.23363122 104.48456744 135.42425342 94.24584961 169.53344727 C87.58021078 190.16382567 76.04391939 207.58519816 61 223 C60.35933594 223.70253906 59.71867188 224.40507812 59.05859375 225.12890625 C40.59214633 244.87165241 14.07735342 256.06698936 -12 261 C-12.96035156 261.19464844 -13.92070312 261.38929688 -14.91015625 261.58984375 C-48.17019609 266.00489329 -82.76335309 257.15793724 -110.0625 237.9375 C-115.29936767 233.90293323 -120.19953137 229.54078331 -125 225 C-125.88558594 224.19046875 -126.77117187 223.3809375 -127.68359375 222.546875 C-139.82817078 211.03967294 -148.16419812 197.16013683 -155 182 C-155.28214355 181.38833984 -155.56428711 180.77667969 -155.85498047 180.14648438 C-161.97076937 166.72562529 -165.55471102 151.76875122 -166 137 C-166.02578125 136.26587891 -166.0515625 135.53175781 -166.078125 134.77539062 C-167.21376038 98.29310412 -154.65895748 64.95366106 -130 38 C-128.89205078 36.78570312 -128.89205078 36.78570312 -127.76171875 35.546875 C-96.62716323 2.98935076 -43.75949953 -12.98460334 0 0 Z M-70 25 C-71.01707031 25.37253906 -72.03414063 25.74507812 -73.08203125 26.12890625 C-75.82265237 27.28052889 -78.38682314 28.58268374 -81 30 C-81.60263672 30.31453125 -82.20527344 30.6290625 -82.82617188 30.953125 C-92.03220344 35.76720589 -100.27865191 40.9704847 -108 48 C-108.75410156 48.66128906 -109.50820312 49.32257813 -110.28515625 50.00390625 C-124.00860965 62.75921479 -133.20022188 80.40825594 -139 98 C-139.34160156 98.92554688 -139.68320313 99.85109375 -140.03515625 100.8046875 C-141.16551574 104.54814524 -141.70038554 108.25235887 -142.125 112.125 C-142.2502002 113.2553064 -142.2502002 113.2553064 -142.37792969 114.40844727 C-145.47642058 144.07491674 -138.41161934 171.85783873 -121 196 C-118.15281473 199.49713898 -115.14180216 202.76745987 -112 206 C-111.38898438 206.67289063 -110.77796875 207.34578125 -110.1484375 208.0390625 C-97.48617504 221.56343645 -79.79807656 231.21532228 -62 236 C-60.94554687 236.29777344 -59.89109375 236.59554687 -58.8046875 236.90234375 C-29.56151696 244.00051825 0.78409285 237.71200056 26.2421875 222.453125 C32.3608038 218.58774336 37.70192776 213.90482801 43 209 C44.23169922 207.89011719 44.23169922 207.89011719 45.48828125 206.7578125 C55.6966716 197.1312475 62.34280289 185.33791432 68.18798828 172.74658203 C68.85558806 171.31062027 69.54755372 169.8860114 70.24609375 168.46484375 C80.73881972 145.31552226 79.41102931 115.50343756 70.79345703 92.05615234 C60.28767652 64.83163435 40.95212421 41.26199848 13.94775391 29.07373047 C11.68592753 28.09852091 9.41176309 27.16514113 7.125 26.25 C6.43059814 25.96809814 5.73619629 25.68619629 5.02075195 25.39575195 C-7.25435288 20.70129882 -19.6040897 19.42029838 -32.625 19.5 C-33.36646271 19.50109772 -34.10792542 19.50219543 -34.87185669 19.50332642 C-47.11601442 19.55520076 -58.42586494 20.73201877 -70 25 Z " fill="#0095AF" transform="translate(283,215)"/>
<path d="M0 0 C3.07850915 1.33871681 4.92360986 3.35011103 7.28631592 5.73036194 C7.78433212 6.22794006 8.28234833 6.72551819 8.79545593 7.23817444 C10.43666634 8.88147167 12.06700036 10.53513227 13.69744873 12.18910217 C14.83450867 13.33175843 15.97223361 14.4737533 17.1105957 15.6151123 C20.10270849 18.61867098 23.08570232 21.63113007 26.06689453 24.64552307 C29.11147307 27.72080785 32.16457823 30.78760137 35.21697998 33.8551178 C41.20322891 39.87352638 47.17987218 45.90136309 53.15057373 51.93519592 C54.26870122 50.98430031 55.38576417 50.03215286 56.50238037 49.07948303 C57.12455948 48.54939133 57.74673859 48.01929962 58.38777161 47.47314453 C61.30208072 44.93056895 63.9551483 42.1498373 66.64666748 39.37660217 C68.6679602 37.40576294 70.7158338 35.57234684 72.85687256 33.73768616 C76.88892279 30.22100884 80.63731745 26.49894106 84.35369873 22.65394592 C85.67602606 21.30440988 86.99895979 19.95546779 88.32244873 18.60707092 C90.37800693 16.50798791 92.42938383 14.40538018 94.47088623 12.2926178 C96.46222764 10.23502453 98.46882978 8.19342283 100.47869873 6.15394592 C101.39440643 5.194823 101.39440643 5.194823 102.32861328 4.21632385 C104.06951904 2.4644928 104.06951904 2.4644928 107.15057373 -0.06480408 C110.36006079 0.34259884 111.93871121 1.35772919 114.16619873 3.65785217 C114.69471436 4.19603577 115.22322998 4.73421936 115.76776123 5.28871155 C116.30658936 5.85267639 116.84541748 6.41664124 117.40057373 6.99769592 C117.95487061 7.56552795 118.50916748 8.13335999 119.08026123 8.71839905 C120.44391587 10.11732062 121.7981779 11.52538706 123.15057373 12.93519592 C121.5717994 16.75914512 119.1555566 19.17161691 116.24188232 22.07093811 C115.74415817 22.56895432 115.24643402 23.06697052 114.73362732 23.58007812 C113.09345303 25.21886326 111.44631712 26.85045726 109.79901123 28.48207092 C108.65800117 29.61934939 107.51743296 30.75707132 106.37728882 31.8952179 C103.37978611 34.88509571 100.37632523 37.86891784 97.37158203 40.85151672 C94.30470661 43.89790913 91.24350679 46.94999295 88.18182373 50.00160217 C82.1769459 55.98505027 76.16576141 61.96211255 70.15057373 67.93519592 C71.56537812 71.14615456 73.26135207 73.29435537 75.73895264 75.76649475 C76.47376862 76.50438736 77.20858459 77.24227997 77.96566772 78.00253296 C78.76145233 78.79113205 79.55723694 79.57973114 80.37713623 80.39222717 C81.19878265 81.21341537 82.02042908 82.03460358 82.86697388 82.88067627 C84.6080689 84.61875017 86.35159372 86.35439291 88.09735107 88.08778381 C90.74971262 90.72201162 93.3941073 93.36402966 96.03729248 96.00746155 C97.73343835 97.69868696 99.43003871 99.38945671 101.12713623 101.07972717 C101.91077545 101.86225357 102.69441467 102.64477997 103.50180054 103.45101929 C107.68634644 107.60014558 111.94623625 111.59750294 116.42483521 115.42840576 C118.78616204 117.4901457 120.96898829 119.68543593 123.15057373 121.93519592 C121.49193868 126.26024428 118.27953273 129.02938418 115.02557373 132.18519592 C114.46225342 132.7394928 113.89893311 133.29378967 113.31854248 133.86488342 C111.93371345 135.22624077 110.54274169 136.58134451 109.15057373 137.93519592 C104.91333778 134.3897536 100.92560253 130.75507162 97.05993652 126.81105042 C95.23483502 125.01797847 93.35237639 123.35389679 91.40545654 121.69496155 C87.22762594 118.06164801 83.36042365 114.19115294 79.50994873 110.21644592 C78.09647662 108.77576228 76.68239693 107.33567454 75.26776123 105.89613342 C73.06735161 103.65221009 70.87109149 101.40475217 68.68475342 99.14710999 C66.55441592 96.95052476 64.40879955 94.76990254 62.25994873 92.59144592 C61.60572937 91.90828308 60.95151001 91.22512024 60.27746582 90.52125549 C59.66292542 89.90310974 59.04838501 89.28496399 58.41522217 88.64808655 C57.87975769 88.09850281 57.34429321 87.54891907 56.79260254 86.98268127 C55.21051947 85.76108608 55.21051947 85.76108608 53.26751709 85.96594238 C50.23732763 87.35333041 48.36115005 89.36662028 46.01483154 91.73036194 C45.51681534 92.22794006 45.01879913 92.72551819 44.50569153 93.23817444 C42.86448112 94.88147167 41.2341471 96.53513227 39.60369873 98.18910217 C38.46663879 99.33175843 37.32891385 100.4737533 36.19055176 101.6151123 C33.19843897 104.61867098 30.21544514 107.63113007 27.23425293 110.64552307 C24.18967439 113.72080785 21.13656923 116.78760137 18.08416748 119.8551178 C12.09791856 125.87352638 6.12127528 131.90136309 0.15057373 137.93519592 C-0.96617138 136.98477505 -2.08195116 136.03321984 -3.19732666 135.08119202 C-3.81878067 134.55141754 -4.44023468 134.02164307 -5.08052063 133.47581482 C-7.24386995 131.59165731 -9.2764164 129.60597789 -11.28692627 127.56019592 C-11.96626221 126.87183655 -12.64559814 126.18347717 -13.34552002 125.47425842 C-14.08995361 124.71242249 -14.08995361 124.71242249 -14.84942627 123.93519592 C-13.27998943 120.15218366 -10.9184135 117.76263045 -8.03253174 114.89125061 C-7.54456116 114.40298798 -7.05659058 113.91472534 -6.55383301 113.41166687 C-4.94612352 111.8053463 -3.33145526 110.20621879 -1.71661377 108.60707092 C-0.59802392 107.49221276 0.52012402 106.37691105 1.6378479 105.26118469 C4.57616698 102.33048984 7.52044328 99.4058517 10.46600342 96.48243713 C13.47255636 93.49636867 16.47343255 90.50460733 19.47479248 87.51332092 C25.36118059 81.64836136 31.25387473 75.7897886 37.15057373 69.93519592 C35.7353828 66.71743645 34.03975391 64.58456592 31.54632568 62.11976624 C30.80828201 61.38510132 30.07023834 60.6504364 29.30982971 59.89350891 C28.11144722 58.71531586 28.11144722 58.71531586 26.88885498 57.51332092 C26.06483688 56.69450439 25.24081879 55.87568787 24.39183044 55.03205872 C21.75360899 52.41165055 19.10882549 49.79799905 16.46307373 47.18519592 C13.83600304 44.58586494 11.21044324 41.98505404 8.58787537 39.38117981 C6.95674649 37.7621708 5.32295258 36.14584075 3.68605042 34.53266907 C-0.50235169 30.38055502 -4.51576963 26.15002546 -8.34510803 21.66340637 C-10.40361344 19.2985274 -12.59931071 17.11712617 -14.84942627 14.93519592 C-13.22881594 10.94086811 -10.45603454 8.13961271 -7.47442627 5.12269592 C-6.99231689 4.60771545 -6.51020752 4.09273499 -6.01348877 3.56214905 C-2.42023783 -0.08480537 -2.42023783 -0.08480537 0 0 Z " fill="#0095B0" transform="translate(195.84942626953125,48.06480407714844)"/>
<path d="M0 0 C2.6640625 0.30078125 2.6640625 0.30078125 4.578125 1.9453125 C5.14273438 2.66074219 5.70734375 3.37617187 6.2890625 4.11328125 C8.66759725 7.12374693 8.66759725 7.12374693 11.4375 9.75 C12.6640625 11.30078125 12.6640625 11.30078125 12.42921448 13.67984009 C11.59215011 16.54710897 10.74902619 17.70779967 8.64819336 19.78662109 C8.01340561 20.42433441 7.37861786 21.06204773 6.72459412 21.71908569 C6.03301712 22.3931546 5.34144012 23.06722351 4.62890625 23.76171875 C3.9168251 24.47051178 3.20474396 25.17930481 2.47108459 25.90957642 C0.19043735 28.17448024 -2.10397522 30.42488319 -4.3984375 32.67578125 C-5.91687715 34.18272615 -7.43446501 35.69052986 -8.95117188 37.19921875 C-10.42371621 38.65832247 -11.89700079 40.11667958 -13.37109375 41.57421875 C-14.04850113 42.2442392 -14.72590851 42.91425964 -15.42384338 43.60458374 C-19.36090799 47.46471612 -23.39389628 51.16719372 -27.57603455 54.76078796 C-30.11332747 56.98103201 -32.46828219 59.33774183 -34.8359375 61.73828125 C-35.691875 62.60324219 -36.5478125 63.46820313 -37.4296875 64.359375 C-38.05875 65.00003906 -38.6878125 65.64070313 -39.3359375 66.30078125 C-38.05795665 71.52749334 -35.76556838 74.22473038 -31.7734375 77.61328125 C-25.3965353 83.2462875 -19.38681058 89.17977129 -13.42553711 95.24926758 C-8.35844783 100.37680168 -3.06919494 105.14345617 2.43334961 109.79711914 C4.0421031 111.16111848 5.63516534 112.54160774 7.2265625 113.92578125 C7.77119141 114.37695312 8.31582031 114.828125 8.87695312 115.29296875 C12.61226454 118.58799631 12.61226454 118.58799631 12.84375 121.7734375 C11.24995681 125.18795469 8.91760299 127.55217664 6.2265625 130.11328125 C5.72318359 130.61537109 5.21980469 131.11746094 4.70117188 131.63476562 C0.94537628 135.30078125 0.94537628 135.30078125 -1.3359375 135.30078125 C-1.3359375 134.64078125 -1.3359375 133.98078125 -1.3359375 133.30078125 C-1.9134375 133.03265625 -2.4909375 132.76453125 -3.0859375 132.48828125 C-5.3359375 131.30078125 -5.3359375 131.30078125 -9.3359375 128.30078125 C-6.0359375 125.00078125 -2.7359375 121.70078125 0.6640625 118.30078125 C-1.08941424 114.79382777 -2.25659603 113.13336424 -4.9609375 110.48828125 C-5.59257812 109.86308594 -6.22421875 109.23789063 -6.875 108.59375 C-8.86976896 106.73513194 -10.89515611 104.95431072 -12.96240234 103.17871094 C-17.4192323 99.28467067 -21.60477802 95.15930274 -25.7734375 90.9609375 C-26.53897949 90.19398056 -27.30452148 89.42702362 -28.09326172 88.63682556 C-30.50986947 86.21467244 -32.92295476 83.78904513 -35.3359375 81.36328125 C-36.98544436 79.70875232 -38.63518179 78.05445323 -40.28515625 76.40039062 C-44.30475121 72.36983923 -48.32146919 68.33643853 -52.3359375 64.30078125 C-50.75716317 60.47683205 -48.34092037 58.06436026 -45.42724609 55.16503906 C-44.92952194 54.66702286 -44.43179779 54.16900665 -43.91899109 53.65589905 C-42.2788168 52.01711392 -40.63168089 50.38551991 -38.984375 48.75390625 C-37.84336494 47.61662778 -36.70279673 46.47890585 -35.56265259 45.34075928 C-32.56514988 42.35088146 -29.56168899 39.36705934 -26.5569458 36.38446045 C-23.49007038 33.33806804 -20.42887056 30.28598422 -17.3671875 27.234375 C-11.36230967 21.25092691 -5.35112518 15.27386462 0.6640625 9.30078125 C0.35726562 8.6871875 0.05046875 8.07359375 -0.265625 7.44140625 C-1.2890625 5.39453125 -2.3125 3.34765625 -3.3359375 1.30078125 C-2.3359375 0.30078125 -2.3359375 0.30078125 0 0 Z " fill="#11373E" transform="translate(317.3359375,53.69921875)"/>
<path d="M0 0 C3.45212082 1.69903466 5.43470516 4.93595958 7.79119873 7.88157654 C7.32477463 8.2744989 6.85835052 8.66742126 6.37779236 9.07225037 C0.68209578 13.95336429 -4.55673756 19.19354693 -9.78302002 24.56907654 C-11.60193101 26.42007472 -13.42161493 28.27031362 -15.24200439 30.11985779 C-18.08756893 33.01345106 -20.92814677 35.91155803 -23.75396729 38.82444763 C-26.49734702 41.65133902 -29.26462713 44.45416911 -32.03302002 47.25657654 C-32.87894211 48.13660339 -33.7248642 49.01663025 -34.59642029 49.92332458 C-35.78839775 51.12082336 -35.78839775 51.12082336 -37.00445557 52.34251404 C-37.69758347 53.05198181 -38.39071136 53.76144958 -39.10484314 54.49241638 C-41.20880127 55.88157654 -41.20880127 55.88157654 -43.87001038 55.69261169 C-46.4338892 54.80352158 -47.4400246 53.89155003 -49.20880127 51.88157654 C-50.19880127 51.22157654 -51.18880127 50.56157654 -52.20880127 49.88157654 C-45.77340882 43.33047549 -39.32470676 36.79286072 -32.85847855 30.27219296 C-29.85655413 27.24414389 -26.85946891 24.21160754 -23.87286377 21.16844177 C-20.9919384 18.23330006 -18.09906704 15.3104434 -15.19741058 12.39579964 C-14.09100433 11.28013491 -12.98901797 10.16006942 -11.89151764 9.03564262 C-10.35663427 7.46460767 -8.80695559 5.90977979 -7.25274658 4.3578949 C-6.3733844 3.46742966 -5.49402222 2.57696442 -4.5880127 1.65951538 C-2.20880127 -0.11842346 -2.20880127 -0.11842346 0 0 Z " fill="#11383F" transform="translate(250.20880126953125,133.11842346191406)"/>
<path d="M0 0 C12.24871976 18.37307964 10.56618153 50.65909815 6.5390625 71.37060547 C-1.21300331 107.63387487 -22.94880003 138.76428669 -54 159 C-84.98925082 178.25342942 -121.80270695 183.56797983 -157.13330078 175.51367188 C-168.1530223 172.8469777 -168.1530223 172.8469777 -172 169 C-163.09 169.99 -154.18 170.98 -145 172 C-145.33 172.99 -145.66 173.98 -146 175 C-141.43255125 175.050281 -136.86527139 175.08612529 -132.29760742 175.10986328 C-130.75102932 175.11978237 -129.20446924 175.13332187 -127.65795898 175.15087891 C-113.63094924 175.30587349 -100.17015124 174.4613448 -86.6875 170.1875 C-85.83502686 169.92396729 -84.98255371 169.66043457 -84.10424805 169.38891602 C-78.07517265 167.4715973 -72.47145372 165.20181366 -67 162 C-65.35608382 161.05914231 -63.71027245 160.12158756 -62.0625 159.1875 C-61.35222656 158.76855469 -60.64195312 158.34960938 -59.91015625 157.91796875 C-58 157 -58 157 -55 157 C-55 156.34 -55 155.68 -55 155 C-52.8845885 153.38109334 -50.7635834 151.86902286 -48.5625 150.375 C-38.45930216 143.31228684 -30.63628933 135.71151539 -23 126 C-22.28457031 125.13890625 -21.56914062 124.2778125 -20.83203125 123.390625 C-17.06599567 118.84029308 -13.83189656 114.35162768 -11.10546875 109.10546875 C-10 107 -10 107 -8.48828125 104.57421875 C-6.97984939 101.96514633 -5.97862169 99.47115807 -5 96.625 C-3.94408735 93.57165259 -2.83866121 90.64268949 -1.5078125 87.6953125 C0.17015808 83.58298045 1.20193113 79.58160659 2.125 75.25 C2.29676758 74.44852539 2.46853516 73.64705078 2.64550781 72.82128906 C6.99211338 51.94914232 6.46158707 29.1901925 0.5859375 8.68359375 C-0.06080421 5.72151672 -0.09765182 3.02276766 0 0 Z " fill="#15262A" transform="translate(388,304)"/>
<path d="M0 0 C6.68183363 1.0440365 12.7465965 2.4042476 19 5 C19 5.33 19 5.66 19 6 C13.91836166 6.09920769 8.93173932 6.04480803 3.875 5.5 C-18.84535682 3.36797772 -48.42658625 7.16797256 -67.09375 21.62109375 C-69.11356636 23.36512749 -71.05669412 25.17147186 -73 27 C-74.2678968 28.08676869 -75.53878559 29.17005553 -76.8125 30.25 C-98.06582295 49.04941677 -111.93923228 72.35995922 -115 101 C-115.92761921 118.52128561 -114.20968733 135.22554576 -109 152 C-109.66 152 -110.32 152 -111 152 C-121.57874845 122.59240998 -121.10785899 94.867847 -109 66 C-107.50718065 62.87019495 -105.83371755 59.94045833 -104 57 C-103.52304688 56.17757812 -103.04609375 55.35515625 -102.5546875 54.5078125 C-92.8104744 38.26745734 -79.60392826 25.16261432 -63 16 C-61.89914063 15.34773437 -60.79828125 14.69546875 -59.6640625 14.0234375 C-41.39130042 3.5979792 -20.61762184 1.33675643 0 1 C0 0.67 0 0.34 0 0 Z " fill="#14282B" transform="translate(270,236)"/>
<path d="M0 0 C3.87469187 1.31999082 6.24409074 2.87520009 9.1159668 5.77539062 C9.88994308 6.54959351 10.66391937 7.32379639 11.46134949 8.12145996 C12.69284477 9.37618103 12.69284477 9.37618103 13.94921875 10.65625 C15.22996025 11.94335876 15.22996025 11.94335876 16.53657532 13.25646973 C19.26067676 15.99734729 21.97416425 18.74846856 24.6875 21.5 C26.52600107 23.35355086 28.36518601 25.20642368 30.20507812 27.05859375 C34.24725173 31.13027059 38.28276306 35.20841931 42.31254578 39.2923584 C43.53771606 40.53218566 44.76747944 41.76747944 46 43 C44.68 43.99 43.36 44.98 42 46 C27.81 31.81 13.62 17.62 -1 3 C-0.67 2.01 -0.34 1.02 0 0 Z " fill="#12363C" transform="translate(207,55)"/>
<path d="M0 0 C0.57562683 0.23799316 1.15125366 0.47598633 1.74432373 0.72119141 C0.80858521 1.65366699 0.80858521 1.65366699 -0.14605713 2.60498047 C-2.67558866 5.13434596 -5.19206094 7.6764349 -7.70709229 10.22021484 C-11.89165612 14.45258338 -16.08265813 18.67846111 -20.27859592 22.89954758 C-22.80872098 25.44539365 -25.33593253 27.99400452 -27.85699463 30.54882812 C-30.30711003 33.03152473 -32.76447085 35.50683197 -35.22703362 37.97718048 C-36.6147168 39.37308302 -37.99477601 40.77655127 -39.37471008 42.18011475 C-40.21916183 43.02479309 -41.06361359 43.86947144 -41.93365479 44.73974609 C-43.04354515 45.85962921 -43.04354515 45.85962921 -44.17585754 47.00213623 C-46.27899618 48.74046626 -47.58767544 49.33382543 -50.25567627 49.72119141 C-50.58567627 49.06119141 -50.91567627 48.40119141 -51.25567627 47.72119141 C-50.78966003 47.32826904 -50.3236438 46.93534668 -49.84350586 46.53051758 C-44.14379675 41.64360214 -38.8875092 36.40451132 -33.64630127 31.03369141 C-31.82267633 29.18284572 -29.99843995 27.33260232 -28.17364502 25.48291016 C-25.32067574 22.58794888 -22.47207701 19.68893351 -19.6350708 16.77832031 C-16.88148011 13.95420244 -14.10804229 11.1500309 -11.33380127 8.34619141 C-10.05717621 7.02615112 -10.05717621 7.02615112 -8.75476074 5.67944336 C-7.96003357 4.88111084 -7.1653064 4.08277832 -6.34649658 3.26025391 C-5.65114807 2.55078613 -4.95579956 1.84131836 -4.23937988 1.11035156 C-2.25567627 -0.27880859 -2.25567627 -0.27880859 0 0 Z " fill="#152629" transform="translate(258.25567626953125,141.27880859375)"/>
<path d="M0 0 C4.85557637 0.45387554 7.11325488 1.49020154 10.53662109 4.93725586 C11.37703949 5.77159653 12.21745789 6.60593719 13.08334351 7.46556091 C14.41494003 8.82645592 14.41494003 8.82645592 15.7734375 10.21484375 C16.6971817 11.14091934 17.6209259 12.06699493 18.57266235 13.02113342 C20.52189113 14.97651328 22.46258765 16.93984849 24.39697266 18.90991211 C26.88011685 21.43848465 29.37841221 23.95138663 31.88251305 26.45918941 C34.26882334 28.85098176 36.64610271 31.25162812 39.0234375 33.65234375 C39.9233139 34.55758286 40.82319031 35.46282196 41.75033569 36.39549255 C42.57184113 37.23298538 43.39334656 38.07047821 44.23974609 38.93334961 C45.33178848 40.0413517 45.33178848 40.0413517 46.44589233 41.17173767 C48 43 48 43 48 45 C44.29030726 44.42794579 42.62277242 42.97638362 40.02929688 40.32226562 C39.26170044 39.54475952 38.494104 38.76725342 37.70324707 37.96618652 C36.47342102 36.69901794 36.47342102 36.69901794 35.21875 35.40625 C34.36825073 34.54439087 33.51775146 33.68253174 32.64147949 32.79455566 C28.99786788 29.10180318 25.37216524 25.39163942 21.74462891 21.68310547 C19.09623351 18.98061277 16.43901972 16.28701875 13.78125 13.59375 C12.96136597 12.74897095 12.14148193 11.90419189 11.29675293 11.03381348 C10.52915649 10.25630737 9.76156006 9.47880127 8.97070312 8.67773438 C8.29881958 7.99014038 7.62693604 7.30254639 6.93469238 6.59411621 C3.97640044 4.15659116 1.7690699 4 -2 4 C-1.34 2.68 -0.68 1.36 0 0 Z " fill="#152629" transform="translate(206,52)"/>
<path d="M0 0 C2.640625 2.328125 2.640625 2.328125 5.25 5.25 C6.55710937 6.68085937 6.55710937 6.68085937 7.890625 8.140625 C10.06755526 11.0915749 10.87741233 12.38257551 11 16 C9.22879028 18.45909119 9.22879028 18.45909119 6.53955078 21.06225586 C6.05362457 21.54102676 5.56769836 22.01979767 5.06704712 22.51307678 C4.01013548 23.55050762 2.94630143 24.58092201 1.87649918 25.60505486 C0.18213308 27.22746345 -1.49320912 28.86750333 -3.16482544 30.51332092 C-6.7184132 34.00513073 -10.29568524 37.47209757 -13.875 40.9375 C-18.01557192 44.95045821 -22.1460005 48.97315423 -26.25708389 53.01632881 C-27.90707603 54.63022692 -29.57176602 56.22783175 -31.23776245 57.82518005 C-32.25280037 58.81885043 -33.26716943 59.81320466 -34.28076172 60.80834961 C-35.16980194 61.66818954 -36.05884216 62.52802948 -36.974823 63.41392517 C-39.31005776 66.3959321 -39.88928672 68.23472211 -40 72 C-38.18911155 74.86965747 -38.18911155 74.86965747 -36 77 C-38.87529818 75.71107323 -41.05008298 74.50703617 -43 72 C-43.79077148 69.64208984 -43.79077148 69.64208984 -44 67 C-42.67993164 64.98291016 -42.67993164 64.98291016 -40.66015625 63.0390625 C-39.92603516 62.31976563 -39.19191406 61.60046875 -38.43554688 60.859375 C-37.65244141 60.12203125 -36.86933594 59.3846875 -36.0625 58.625 C-35.31419922 57.89539063 -34.56589844 57.16578125 -33.79492188 56.4140625 C-30.3837866 53.11201279 -26.917526 49.90142288 -23.3125 46.8125 C-17.58681231 41.84952651 -12.19709754 36.53148121 -6.8059082 31.2109375 C-5.5502993 29.97714958 -4.28845346 28.74967991 -3.02075195 27.52832031 C-1.17507353 25.74922754 0.6504273 23.95150236 2.47265625 22.1484375 C3.04331314 21.60561127 3.61397003 21.06278503 4.20191956 20.50350952 C5.97221848 18.7920915 5.97221848 18.7920915 8 16 C7.95124418 12.56911386 7.37451337 11.43943958 5.15234375 8.83203125 C4.42144531 8.16558594 3.69054687 7.49914062 2.9375 6.8125 C1.59244025 5.5761797 0.27140265 4.31194852 -1 3 C-1 2.34 -1 1.68 -1 1 C-3.31 1.66 -5.62 2.32 -8 3 C-7.67 2.01 -7.34 1.02 -7 0 C-4.18665571 -1.40667214 -2.97589846 -0.98049834 0 0 Z " fill="#152629" transform="translate(321,53)"/>
<path d="M0 0 C13.365 1.485 13.365 1.485 27 3 C26.67 3.99 26.34 4.98 26 6 C30.60408143 6.02506619 35.20812154 6.04302973 39.81225586 6.05493164 C41.37248427 6.05990307 42.93270817 6.06668257 44.49291992 6.07543945 C54.05602403 6.12769685 63.47289338 5.93036921 73 5 C60.46940518 13.35372988 33.58234211 10.40389086 19.5 7.6875 C17.32488269 7.15861874 15.15674961 6.59940122 13 6 C12.00484375 5.74863281 11.0096875 5.49726563 9.984375 5.23828125 C5.44958803 4.01388877 3.42314535 3.42314535 0 0 Z " fill="#14282C" transform="translate(216,473)"/>
<path d="M0 0 C1.9375 0.6875 1.9375 0.6875 4 2 C5.18891545 4.9326581 5.25407408 6.37328394 4.0625 9.3125 C-3.16447413 18.72946629 -3.16447413 18.72946629 -8.03125 20.91015625 C-10 21 -10 21 -11.81640625 19.85546875 C-12.39261719 19.30503906 -12.96882813 18.75460938 -13.5625 18.1875 C-15.68206119 16.20011635 -17.55730256 14.62846496 -20 13 C-18.3125 12.1875 -18.3125 12.1875 -16 12 C-13.25 14.3125 -13.25 14.3125 -11 17 C-11 17.66 -11 18.32 -11 19 C-9.02819796 17.30219527 -7.06638837 15.59485324 -5.1171875 13.87109375 C-3.86504829 12.7644984 -2.60306954 11.66860922 -1.3203125 10.59765625 C0.25073561 9.27500012 0.25073561 9.27500012 2 7 C1.86863344 4.175619 1.25262369 2.50524739 0 0 Z " fill="#15262A" transform="translate(327,170)"/>
<path d="M0 0 C4.4038225 0.43834344 6.20130859 3.10150138 9 6.3125 C9.96234911 7.39934941 10.92728693 8.48391104 11.89453125 9.56640625 C12.39678223 10.12859863 12.8990332 10.69079102 13.41650391 11.27001953 C16.08475695 14.1851045 18.8812229 16.96850888 21.6875 19.75 C22.21666016 20.27505127 22.74582031 20.80010254 23.29101562 21.34106445 C24.52526381 22.56281444 25.76230335 23.78174362 27 25 C23.3342585 25 22.50979632 23.85965858 20.00093079 21.36647034 C19.49144394 20.84463669 18.98195709 20.32280304 18.45703125 19.78515625 C17.92857101 19.25482285 17.40011078 18.72448944 16.8556366 18.17808533 C15.74016214 17.05588736 14.62829202 15.93009687 13.51977539 14.80102539 C11.81583242 13.06589341 10.101416 11.34169268 8.38476562 9.61914062 C7.30406049 8.52926721 6.22396116 7.43879268 5.14453125 6.34765625 C4.62897171 5.82784683 4.11341217 5.30803741 3.58222961 4.7724762 C0 1.11714689 0 1.11714689 0 0 Z " fill="#14262A" transform="translate(285,130)"/>
<path d="M0 0 C10.395 0.99 10.395 0.99 21 2 C20.67 2.99 20.34 3.98 20 5 C6.3667426 3.07289294 6.3667426 3.07289294 0 1 C0 0.67 0 0.34 0 0 Z " fill="#0F434C" transform="translate(222,474)"/>
<path d="M0 0 C4.21878192 -0.19622241 7.17010894 0.19769832 11 2 C11 2.66 11 3.32 11 4 C13.97 4.495 13.97 4.495 17 5 C17.33 5.99 17.66 6.98 18 8 C11.79522136 6.06375702 5.89174281 3.74390859 0 1 C0 0.67 0 0.34 0 0 Z " fill="#123339" transform="translate(198,441)"/>
<path d="M0 0 C5.65611463 -0.56561146 9.22642128 1.28608722 14 4 C14 4.33 14 4.66 14 5 C10.89490304 6.00915651 8.83438599 6.38728669 5.8203125 4.98828125 C3.80105849 3.73433169 1.85909545 2.48161414 0 1 C0 0.67 0 0.34 0 0 Z " fill="#132E33" transform="translate(315,228)"/>
</svg>
